<?xml version="1.0" encoding="UTF-8"?><svg id="Layer_1" xmlns="http://www.w3.org/2000/svg" viewBox="0 0 572.39 282.76"><defs><style>.cls-1{fill:#00ffef;}.cls-2{fill:#fff;}</style></defs><path class="cls-2" d="m248.65,102.44h16.81v7.63h-16.81v17.27h-9.18v-43.02h30v7.63h-20.82v10.5Z"/><path class="cls-2" d="m320.3,110.18c0,4.67-1.29,8.78-3.87,12.33-2.58,3.56-7.2,5.33-13.85,5.33-4.59,0-8.21-.92-10.87-2.75s-4.48-4.07-5.48-6.71c-1-2.64-1.49-5.37-1.49-8.2v-25.87h9.18v25.87c0,2.22.56,4.45,1.69,6.68,1.13,2.24,3.45,3.36,6.97,3.36s5.82-1.11,6.91-3.33c1.09-2.22,1.63-4.45,1.63-6.71v-25.87h9.18v25.87Z"/><path class="cls-2" d="m365.3,113.22c0,2.6-.48,5-1.43,7.2s-2.53,3.99-4.73,5.36-5.06,2.07-8.58,2.07-6.38-.75-8.58-2.27c-2.2-1.51-3.78-3.46-4.73-5.85-.96-2.39-1.43-5-1.43-7.83h9.18c0,5.54,1.85,8.32,5.56,8.32s5.56-2.33,5.56-7v-28.91h9.18v28.91Z"/><path class="cls-2" d="m383.19,127.34v-43.02h9.18v43.02h-9.18Z"/><path class="cls-2" d="m440.9,125.16c-3.1,1.64-6.41,2.47-9.92,2.47-3.98,0-7.69-.97-11.13-2.9-3.44-1.93-6.19-4.57-8.23-7.92-2.05-3.35-3.07-7.01-3.07-10.99s1.02-7.64,3.07-10.98c2.05-3.35,4.79-5.98,8.23-7.92,3.44-1.93,7.15-2.9,11.13-2.9,3.52,0,6.83.83,9.92,2.5,3.1,1.66,5.49,3.99,7.17,6.97l-6.19,4.47c-1.26-1.87-2.8-3.39-4.62-4.56-1.82-1.17-3.95-1.75-6.4-1.75s-4.78.62-6.77,1.86c-1.99,1.24-3.55,2.95-4.67,5.11-1.13,2.16-1.69,4.56-1.69,7.2s.56,5.04,1.69,7.2c1.13,2.16,2.69,3.86,4.67,5.11,1.99,1.24,4.25,1.86,6.77,1.86,4.51,0,8.18-2.08,11.01-6.25l6.19,4.47c-1.68,2.98-4.07,5.3-7.17,6.94Z"/><path class="cls-2" d="m495.31,86.75c3.4,1.82,6.09,4.38,8.06,7.69s2.95,7.1,2.95,11.39-.98,8.08-2.95,11.39c-1.97,3.31-4.66,5.87-8.06,7.69-3.4,1.82-7.21,2.72-11.42,2.72s-8.01-.91-11.42-2.72c-3.4-1.82-6.09-4.38-8.06-7.69-1.97-3.31-2.95-7.1-2.95-11.39s.98-8.08,2.95-11.39c1.97-3.31,4.66-5.87,8.06-7.69,3.4-1.82,7.21-2.72,11.42-2.72s8.01.91,11.42,2.72Zm-18.33,6.74c-2.01,1.22-3.57,2.91-4.68,5.05-1.11,2.14-1.66,4.57-1.66,7.29s.55,5.14,1.66,7.29c1.11,2.14,2.67,3.83,4.68,5.05s4.31,1.83,6.91,1.83,4.9-.61,6.91-1.83,3.57-2.91,4.67-5.05c1.11-2.14,1.66-4.57,1.66-7.29s-.55-5.14-1.66-7.29c-1.11-2.14-2.67-3.82-4.67-5.05-2.01-1.22-4.31-1.83-6.91-1.83s-4.9.61-6.91,1.83Z"/><path class="cls-2" d="m572.39,127.34h-9.18v-25.12l-12.85,25.12h-5.56l-12.85-25.12v25.12h-9.18v-43.02h9.87l14.91,29.71,14.92-29.71h9.92v43.02Z"/><path class="cls-1" d="m248.88,164.97c-.03-.75-.06-1.21-.15-1.77h5.21c-.09.53-.12.96-.16,1.77h8.01c1.74,0,2.73-.03,3.72-.12-.09.65-.12,1.21-.12,2.27v2.51c0,.96.03,1.61.16,2.3h-4.69v-3.29h-18.59v3.29h-4.69c.12-.84.16-1.43.16-2.33v-2.48c0-.75-.03-1.4-.12-2.27.96.09,1.99.12,3.69.12h7.57Zm-9.81,18.53c0-1.43-.03-2.23-.12-3.35.99.09,1.71.12,3.32.12h18.56c1.58,0,2.33-.03,3.32-.12-.09,1.09-.12,1.92-.12,3.35v5.4c0,1.49.03,2.64.16,3.69h-4.72v-.93h-15.83v.93h-4.72c.09-1.09.16-2.23.16-3.69v-5.4Zm22.84-6.3c0,1.27,0,1.64.09,2.3-1.09-.06-2.08-.09-3.07-.09h-14.74c-1.05,0-1.96.03-3.07.09.06-.65.09-1.12.09-2.3v-1.96c0-1.09-.03-1.33-.09-2.27.99.06,1.83.09,3.07.09h14.74c1.24,0,2.08-.03,3.07-.09-.09.74-.09,1.12-.09,2.27v1.96Zm-18.84-7.85c.59.06,1.37.09,2.14.09h12.63c.81,0,1.58-.03,2.2-.09v2.98c-.78-.06-1.43-.09-2.2-.09h-12.66c-.71,0-1.37.03-2.11.09v-2.98Zm.56,15.08h5.46v-1.02h-5.46v1.02Zm0,3.82h5.46v-1.06h-5.46v1.06Zm2.11-12.51v.99h11.64v-.99h-11.64Zm7.91,8.69h5.8v-1.02h-5.8v1.02Zm0,3.82h5.8v-1.06h-5.8v1.06Z"/><path class="cls-1" d="m294.27,167.64c0-1.71-.06-2.67-.19-3.82h5.59c-.12,1.12-.19,2.2-.19,3.85v4.44h6.74c1.8,0,3.32-.06,5-.22v5.12c-1.55-.16-2.98-.22-4.81-.22h-6.92v9.99h5.74c2.05,0,3.1-.03,4.38-.19v5.03c-1.46-.16-2.39-.19-4.35-.19h-16.45c-1.96,0-3.07.06-4.41.19v-5.03c1.21.15,2.27.19,4.31.19h5.56v-9.99h-6.18c-1.89,0-3.51.06-5.18.22v-5.12c1.43.16,3.07.22,5.18.22h6.18v-4.47Z"/><path class="cls-1" d="m334.6,189.08c-2.86,0-3.91.03-5.31.19v-5.65c1.49.22,2.33.25,5.4.25h12.41v-12.14h-12.04c-2.86,0-4.04.03-5.34.16v-5.65c1.49.22,2.48.28,5.43.28h14.25c1.68,0,2.54-.03,3.45-.09-.06,1.09-.09,1.61-.09,3.17v16.2c0,2.61.03,3.32.19,5.12h-5.83v-1.83h-12.51Z"/><path class="cls-1" d="m375.55,165.78c3.91,2.3,5.93,3.72,8.54,6.08l-3.66,4.84c-2.7-2.82-5.34-4.87-8.44-6.55l3.57-4.38Zm-3.26,19.27c3.17-.25,6.42-1.02,9.34-2.23,3.91-1.61,6.7-3.94,9.09-7.67,1.3-1.99,2.14-3.69,3.04-6.08,1.52,1.83,2.23,2.45,4.56,4.16-2.82,6.11-5.77,9.78-10.12,12.57-3.35,2.17-6.3,3.32-12.07,4.66-1.21.28-1.4.31-2.23.56l-1.61-5.96Z"/><path class="cls-1" d="m422.91,173.54c4.28-.81,11.02-3.54,12.69-5.12l3.38,4.87c-.99.47-1.09.5-2.95,1.4-3.88,1.71-8.72,3.2-13.13,4v3.48q0,1.96.12,2.39c.19.59.59.84,1.49.96,1.09.12,2.05.19,3.29.19,1.77,0,4.19-.12,6.05-.31,2.3-.25,3.51-.47,5.34-.99l.22,5.74c-.74,0-1.64.06-3.2.22-3.1.28-6.58.47-9.06.47-4.25,0-6.39-.37-7.82-1.37-.96-.71-1.52-1.74-1.74-3.35-.09-.62-.12-1.52-.12-3.29v-13.5c0-2.08-.06-3.13-.19-4.13h5.8c-.15.96-.19,1.74-.19,4.16v4.19Zm20.08-7.2c0,1.92-1.55,3.51-3.48,3.51s-3.54-1.61-3.54-3.51,1.61-3.51,3.54-3.51,3.48,1.55,3.48,3.51Zm-5.25,0c0,.93.81,1.74,1.74,1.74s1.77-.81,1.77-1.74-.81-1.77-1.74-1.77-1.77.81-1.77,1.77Z"/><path class="cls-1" d="m478.08,186.23c1.74,0,2.98-.06,4.07-.19v4.72c-1.02-.09-2.51-.12-4.1-.12h-14.53c-2.02,0-3.04.03-4.16.12v-4.72c1.18.16,1.89.19,4.16.19h7.67c.75-4.16.9-5.18,1.33-9.25h-5.96c-2.08,0-3.01.03-4.04.12v-4.72c1.3.16,1.92.19,4.16.19h7.51c.81,0,1.18-.06,1.77-.34l2.36,1.96q-.4.78-.81,3.82c-.28,2.08-.78,5.43-1.21,8.22h1.77Z"/><path class="cls-1" d="m499.51,174.96c1.46.22,3.13.28,6.36.28h14.83c3.1,0,4.28-.06,6.36-.28v5.99c-1.49-.16-2.86-.19-6.39-.19h-14.77c-3.48,0-4.5.03-6.39.19v-5.99Z"/><path class="cls-1" d="m559.76,164.5c-.03.06-.47.93-1.33,2.7l8.35-.09c.9,0,1.3-.09,1.89-.4l2.76,2.73c-.37.4-.46.59-.71,1.33-1.83,5.52-3.48,8.88-5.77,11.98-1.99,2.67-4.53,5.03-7.54,7.01-1.68,1.09-2.95,1.77-5.34,2.86-1.15-2.02-1.89-2.98-3.63-4.66,4.72-1.68,7.73-3.51,10.52-6.36-1.92-1.58-3.44-2.58-5.77-3.85l3.26-3.91c2.76,1.49,3.76,2.11,5.71,3.54,1.27-1.96,2.02-3.63,2.67-5.68l-8.6.06c-1.8,3.1-3.94,5.65-7.08,8.41-1.49-1.61-2.45-2.39-4.47-3.51,3.66-2.89,5.9-5.46,7.73-8.91.87-1.58,1.4-2.92,1.8-4.34l5.56,1.09Z"/><path class="cls-1" d="m72.66,88.56v52.83L8.45,176.37c-3.81,2.11-8.45-.65-8.45-4.99v-39.85c0-2.05,1.17-3.99,2.99-4.99l67.03-36.51v-.06l2.64-1.41Z"/><path class="cls-1" d="m145.27,5.68v39.85c0,2.11-1.12,3.99-2.99,4.99l-66.38,36.27c-.18.12-.41.18-.59.29-.06,0-.06.06-.12.06l-2.52,1.41v-49.48c0-2.05,1.12-3.99,2.93-4.99L136.82.69c3.82-2.05,8.45.71,8.45,4.99Z"/><path class="cls-1" d="m75.31,85.27v1.82c-.06,0-.06.06-.12.06-1.41.88-2.47,2.76-2.52,4.4h-2.64v-1.58c1.47-.82,2.64-2.88,2.64-4.58v-.12h2.64Z"/><path class="cls-1" d="m72.69,194.23v52.83l-64.21,34.98c-3.81,2.11-8.45-.65-8.45-4.99v-39.85c0-2.05,1.17-3.99,2.99-4.99l67.03-36.51v-.06l2.64-1.41Z"/><path class="cls-1" d="m145.3,111.35v39.85c0,2.11-1.12,3.99-2.99,4.99l-66.38,36.27c-.18.12-.41.18-.59.29-.06,0-.06.06-.12.06l-2.52,1.41v-52.87l64.15-35c3.82-2.05,8.45.71,8.45,4.99Z"/><path class="cls-1" d="m75.34,190.94v1.82c-.06,0-.06.06-.12.06-1.41.88-2.47,2.76-2.52,4.4h-2.64v-1.58c1.47-.82,2.64-2.88,2.64-4.58v-.12h2.64Z"/><path class="cls-1" d="m75.13,140.02v4.28h-2.41c0-1.58-1.06-2.29-2.41-1.64v-4.17h2.35c0,1.58,1.12,2.23,2.47,1.53Z"/></svg>